<?xml version="1.0" encoding="UTF-8"?>
<svg width="48px" height="48px" viewBox="0 0 48 48" version="1.1" xmlns="http://www.w3.org/2000/svg" xmlns:xlink="http://www.w3.org/1999/xlink">
    <!-- Generator: Sketch 49.3 (51167) - http://www.bohemiancoding.com/sketch -->
    <title>Shape</title>
    <desc>Created with Sketch.</desc>
    <defs></defs>
    <g id="Page-1" stroke="none" stroke-width="1" fill="none" fill-rule="evenodd">
        <g id="Nodeconf--Home" transform="translate(-692.000000, -707.000000)" fill="#4A90E2" fill-rule="nonzero">
            <g id="arrow-down-circle-2" transform="translate(692.000000, 707.000000)">
                <path d="M23.837414,0.062094964 C10.7562246,0.062094964 0.248430816,10.569939 0.248430816,23.6510782 C0.248430816,36.7322173 10.7562748,47.2400613 23.837414,47.2400613 C36.9185532,47.2400613 47.4263972,36.7322173 47.4263972,23.6510782 C47.4263972,10.569939 36.9185532,0.062094964 23.837414,0.062094964 Z M23.837414,42.951169 C13.1151581,42.951169 4.53732314,34.3733341 4.53732314,23.6510782 C4.53732314,12.9288222 13.1151581,4.35098729 23.837414,4.35098729 C34.55967,4.35098729 43.1375049,12.9288222 43.1375049,23.6510782 C43.1375049,34.3733341 34.55967,42.951169 23.837414,42.951169 Z M30.914114,22.1499432 L25.9818853,27.0821719 L25.9818853,15.0732432 C25.9818853,13.7865705 25.1240867,12.9287719 23.837414,12.9287719 C22.5507413,12.9287719 21.6929427,13.7865705 21.6929427,15.0732432 L21.6929427,27.0821719 L16.760714,22.1499432 C15.9029155,21.2921447 14.6162427,21.2921447 13.7584944,22.1499432 C12.9007461,23.0077418 12.9006959,24.2944145 13.7584944,25.1521628 L22.3363293,33.7299977 C22.5507915,33.9444599 22.7652035,34.1588719 22.9796657,34.1588719 C23.1941279,34.3733341 23.6230021,34.3733341 23.8374643,34.3733341 C24.0519265,34.3733341 24.4808006,34.3733341 24.6952628,34.1588719 C24.909725,33.9444097 25.124137,33.9444097 25.3385992,33.7299977 L33.9164341,25.1521628 C34.7742327,24.2943643 34.7742327,23.0076915 33.9164341,22.1499432 C33.0586355,21.2921949 31.7719628,21.2921447 30.9142145,22.1499432 L30.914114,22.1499432 Z" id="Shape"></path>
            </g>
        </g>
    </g>
</svg>