<svg id="Layer_1" data-name="Layer 1" xmlns="http://www.w3.org/2000/svg" viewBox="0 0 1072.07 280.04"><defs><style>.cls-1{fill:#0b0332;}.cls-2{fill:#0c005f;}.cls-3{fill:#0c0087;}.cls-10,.cls-4,.cls-5,.cls-6,.cls-8{fill:#b7d335;}.cls-4{opacity:0.4;}.cls-5{opacity:0.7;}.cls-6{opacity:0.47;}.cls-7{fill:#0c00c0;}.cls-8{opacity:0.94;}.cls-9{fill:#0c0095;}.cls-11{fill:#4a90e2;}</style></defs><title>ciudad2</title><rect class="cls-1" x="689.36" y="58.88" width="59.5" height="221.16"/><rect class="cls-1" x="588.56" y="55.37" width="45.26" height="224.66"/><rect class="cls-1" x="766.37" y="58.88" width="45.26" height="221.16"/><rect class="cls-1" x="798.32" y="69.32" width="84.36" height="210.72"/><rect class="cls-1" x="860.79" y="47.71" width="67.15" height="232.32"/><rect class="cls-1" x="925.38" y="97.64" width="45.26" height="182.4"/><rect class="cls-1" x="970.64" y="69.32" width="53.69" height="210.72"/><rect class="cls-1" x="1015.57" y="139.55" width="56.49" height="140.57"/><rect class="cls-1" x="240.75" y="206.5" width="63.56" height="73.54"/><rect class="cls-1" x="293.65" y="168.91" width="41.13" height="111.12"/><rect class="cls-1" x="486.52" y="67.7" width="59.5" height="212.33"/><rect class="cls-1" x="314.37" y="58.88" width="79.48" height="221.16"/><rect class="cls-1" x="388.21" y="27.88" width="63.7" height="252.16"/><rect class="cls-1" x="165.4" y="58.88" width="79.48" height="221.16"/><rect class="cls-1" x="239.23" y="27.88" width="63.7" height="252.16"/><rect class="cls-1" x="78.46" y="96.59" width="63.7" height="183.45"/><rect class="cls-1" x="55.88" y="149.75" width="22.59" height="130.29"/><rect class="cls-1" y="116.51" width="67.17" height="163.52"/><rect class="cls-1" x="441.34" y="42.25" width="38.86" height="237.78"/><rect class="cls-1" x="532.75" y="27.88" width="59.5" height="252.16"/><rect class="cls-2" x="288.52" y="92.79" width="92.04" height="187.25" transform="translate(669.07 372.82) rotate(-180)"/><rect class="cls-3" x="297.02" y="108.67" width="75.04" height="9.68" transform="translate(669.07 227.03) rotate(-180)"/><rect class="cls-3" x="297.02" y="127.71" width="75.04" height="9.68" transform="translate(669.07 265.09) rotate(-180)"/><rect class="cls-3" x="297.02" y="146.74" width="75.04" height="9.68" transform="translate(669.07 303.16) rotate(-180)"/><rect class="cls-3" x="297.02" y="165.77" width="75.04" height="9.68" transform="translate(669.07 341.23) rotate(-180)"/><rect class="cls-3" x="297.02" y="184.8" width="75.04" height="9.68" transform="translate(669.07 379.29) rotate(-180)"/><rect class="cls-4" x="297.02" y="110.18" width="57.64" height="8.18" transform="translate(651.68 228.53) rotate(-180)"/><rect class="cls-4" x="343.23" y="129.21" width="28.82" height="8.18" transform="translate(715.29 266.6) rotate(-180)"/><rect class="cls-4" x="343.23" y="186.31" width="28.82" height="8.18" transform="translate(715.29 380.8) rotate(-180)"/><rect class="cls-4" x="319.68" y="167.28" width="39.78" height="8.18" transform="translate(679.15 342.73) rotate(-180)"/><rect class="cls-4" x="297.02" y="148.24" width="14.41" height="8.18" transform="translate(608.45 304.66) rotate(-180)"/><rect class="cls-4" x="297.02" y="186.31" width="14.41" height="8.18" transform="translate(608.45 380.8) rotate(-180)"/><rect class="cls-3" x="297.02" y="203.45" width="75.04" height="9.68" transform="translate(669.07 416.58) rotate(-180)"/><rect class="cls-3" x="297.02" y="222.48" width="75.04" height="9.68"/><rect class="cls-3" x="297.02" y="241.52" width="75.04" height="9.68"/><rect class="cls-4" x="297.02" y="204.96" width="57.64" height="8.18" transform="translate(651.68 418.09) rotate(-180)"/><rect class="cls-4" x="297.02" y="223.99" width="28.82" height="8.18"/><rect class="cls-4" x="357.64" y="243.02" width="14.41" height="8.18"/><rect class="cls-2" x="775.59" y="128.19" width="64.99" height="151.84"/><rect class="cls-3" x="785.71" y="166.89" width="13.27" height="20.72"/><rect class="cls-3" x="785.71" y="192.52" width="13.27" height="20.72"/><rect class="cls-3" x="802.56" y="166.89" width="13.27" height="20.72"/><rect class="cls-3" x="802.56" y="141.64" width="13.27" height="20.72"/><rect class="cls-3" x="785.71" y="141.64" width="13.27" height="20.72"/><rect class="cls-3" x="802.56" y="192.52" width="13.27" height="20.72"/><rect class="cls-3" x="819.66" y="166.89" width="13.27" height="20.72"/><rect class="cls-3" x="819.66" y="141.64" width="13.27" height="20.72"/><rect class="cls-3" x="819.66" y="192.52" width="13.27" height="20.72"/><rect class="cls-5" x="804.64" y="141.96" width="11.33" height="18.76"/><rect class="cls-5" x="787.3" y="166.89" width="11.43" height="19.02"/><rect class="cls-5" x="821.56" y="192.52" width="11.43" height="19.02"/><rect class="cls-3" x="785.71" y="218.02" width="13.27" height="20.72"/><rect class="cls-3" x="785.71" y="243.65" width="13.27" height="20.72"/><rect class="cls-3" x="802.56" y="218.02" width="13.27" height="20.72"/><rect class="cls-3" x="802.56" y="243.65" width="13.27" height="20.72"/><rect class="cls-3" x="819.66" y="218.02" width="13.27" height="20.72"/><rect class="cls-3" x="819.66" y="243.65" width="13.27" height="20.72"/><rect class="cls-5" x="804.58" y="218.02" width="11.43" height="19.02"/><rect class="cls-5" x="804.58" y="243.81" width="11.43" height="19.02"/><rect class="cls-5" x="787.3" y="218.02" width="11.43" height="19.02"/><rect class="cls-3" x="459.52" y="113.55" width="131.75" height="7.08"/><rect class="cls-2" x="465.69" y="120.64" width="121.39" height="159.4"/><rect class="cls-3" x="481.71" y="134.8" width="89.35" height="12.59"/><rect class="cls-3" x="481.71" y="161.34" width="89.35" height="12.59"/><rect class="cls-3" x="481.71" y="187.89" width="89.35" height="12.59"/><rect class="cls-3" x="481.71" y="214.44" width="89.35" height="12.59"/><rect class="cls-3" x="481.71" y="240.98" width="89.35" height="12.59"/><rect class="cls-6" x="549.07" y="136.96" width="16.17" height="10.43"/><rect class="cls-6" x="510.22" y="190.18" width="35.34" height="10.3"/><rect class="cls-6" x="498.18" y="163.08" width="19.1" height="10.35"/><rect class="cls-6" x="510.22" y="216.37" width="19.1" height="10.35"/><rect class="cls-6" x="487.32" y="243.22" width="19.1" height="10.35"/><rect class="cls-6" x="547.6" y="216.37" width="19.1" height="10.35"/><polygon class="cls-2" points="709.36 17.13 695.17 0.92 680.82 17.13 672.64 280.04 717.54 280.04 709.36 17.13"/><rect class="cls-7" x="420.01" y="101.99" width="73.29" height="178.05"/><rect class="cls-7" x="426.56" y="86.75" width="60.19" height="11.7"/><rect class="cls-3" x="415.04" y="94.91" width="80.98" height="7.08"/><rect class="cls-3" x="435.85" y="117.04" width="14.02" height="145.15"/><rect class="cls-3" x="464.8" y="117.04" width="14.02" height="145.15"/><rect class="cls-8" x="467.28" y="128.98" width="11.54" height="24.45"/><rect class="cls-8" x="438.45" y="168.81" width="11.42" height="21.37"/><rect class="cls-8" x="438.45" y="213.05" width="11.42" height="16.98"/><rect class="cls-8" x="467.28" y="202.69" width="11.54" height="15.68"/><rect class="cls-9" x="705.78" y="101.99" width="73.29" height="178.05"/><rect class="cls-3" x="712.33" y="86.75" width="60.19" height="11.7"/><rect class="cls-2" x="700.8" y="94.91" width="80.98" height="7.08"/><rect class="cls-2" x="721.61" y="117.04" width="14.02" height="145.15"/><rect class="cls-2" x="750.57" y="117.04" width="14.02" height="145.15"/><rect class="cls-5" x="753.26" y="165.84" width="11.33" height="27.72"/><rect class="cls-5" x="724.99" y="128.98" width="10.65" height="20.81"/><rect class="cls-5" x="724.99" y="202.17" width="10.65" height="16.98"/><rect class="cls-5" x="753.26" y="230.89" width="11.33" height="16.98"/><rect class="cls-9" x="371.9" y="134.8" width="44.61" height="145.24"/><rect class="cls-2" x="380.73" y="147.38" width="26.94" height="9.32"/><rect class="cls-2" x="380.73" y="166.45" width="26.94" height="9.32"/><rect class="cls-5" x="380.73" y="167.64" width="6.56" height="8.14"/><rect class="cls-2" x="380.73" y="185.52" width="26.94" height="9.32"/><rect class="cls-2" x="380.73" y="204.58" width="26.94" height="9.32"/><rect class="cls-2" x="380.73" y="223.65" width="26.94" height="9.32"/><rect class="cls-2" x="380.73" y="242.71" width="26.94" height="9.32"/><rect class="cls-5" x="400.9" y="206.06" width="6.78" height="7.84"/><rect class="cls-5" x="390.28" y="225.07" width="6.97" height="7.9"/><rect class="cls-9" x="121.13" y="151.85" width="44.61" height="128.26" transform="translate(286.88 431.97) rotate(-180)"/><rect class="cls-2" x="129.97" y="164.44" width="26.94" height="9.32" transform="translate(286.88 338.21) rotate(-180)"/><rect class="cls-2" x="129.97" y="183.51" width="26.94" height="9.32" transform="translate(286.88 376.34) rotate(-180)"/><rect class="cls-5" x="150.35" y="184.69" width="6.56" height="8.14" transform="translate(307.26 377.53) rotate(-180)"/><rect class="cls-2" x="129.97" y="202.57" width="26.94" height="9.32" transform="translate(286.88 414.47) rotate(-180)"/><rect class="cls-2" x="129.97" y="221.64" width="26.94" height="9.32" transform="translate(286.88 452.6) rotate(-180)"/><rect class="cls-2" x="129.97" y="240.71" width="26.94" height="9.32" transform="translate(286.88 490.74) rotate(-180)"/><rect class="cls-5" x="129.97" y="223.12" width="6.78" height="7.84" transform="translate(266.71 454.09) rotate(-180)"/><rect class="cls-5" x="140.39" y="242.13" width="6.97" height="7.9" transform="translate(287.76 492.16) rotate(-180)"/><rect class="cls-2" x="923.54" y="156.71" width="92.04" height="123.33"/><rect class="cls-3" x="932.04" y="172.6" width="75.04" height="9.68"/><rect class="cls-2" x="948.15" y="147.03" width="42.81" height="9.68"/><rect class="cls-3" x="932.04" y="191.63" width="75.04" height="9.68"/><rect class="cls-3" x="932.04" y="210.66" width="75.04" height="9.68"/><rect class="cls-3" x="932.04" y="229.7" width="75.04" height="9.68"/><rect class="cls-3" x="932.04" y="248.73" width="75.04" height="9.68"/><rect class="cls-4" x="949.43" y="174.1" width="57.64" height="8.18"/><rect class="cls-4" x="932.04" y="193.13" width="28.82" height="8.18"/><rect class="cls-4" x="932.04" y="250.23" width="28.82" height="8.18"/><rect class="cls-4" x="944.63" y="231.2" width="39.78" height="8.18"/><rect class="cls-4" x="992.66" y="212.17" width="14.41" height="8.18"/><rect class="cls-4" x="992.66" y="250.23" width="14.41" height="8.18"/><rect class="cls-9" x="561.03" y="156.71" width="64.99" height="123.33"/><rect class="cls-2" x="571.16" y="192.33" width="13.27" height="20.72"/><rect class="cls-2" x="571.16" y="217.95" width="13.27" height="20.72"/><rect class="cls-2" x="588" y="192.33" width="13.27" height="20.72"/><rect class="cls-2" x="588" y="167.08" width="13.27" height="20.72"/><rect class="cls-2" x="571.16" y="167.08" width="13.27" height="20.72"/><rect class="cls-2" x="588" y="217.95" width="13.27" height="20.72"/><rect class="cls-2" x="605.11" y="192.33" width="13.27" height="20.72"/><rect class="cls-2" x="605.11" y="167.08" width="13.27" height="20.72"/><rect class="cls-2" x="605.11" y="217.95" width="13.27" height="20.72"/><rect class="cls-5" x="607.05" y="167.08" width="11.33" height="18.76"/><rect class="cls-5" x="589.85" y="217.95" width="11.43" height="19.02"/><rect class="cls-3" x="837.31" y="113.55" width="101.86" height="7.08"/><rect class="cls-7" x="842.08" y="120.64" width="93.84" height="159.4"/><rect class="cls-3" x="854.46" y="134.8" width="69.08" height="12.59"/><rect class="cls-3" x="854.46" y="161.34" width="69.08" height="12.59"/><rect class="cls-3" x="854.46" y="187.89" width="69.08" height="12.59"/><rect class="cls-3" x="854.46" y="214.44" width="69.08" height="12.59"/><rect class="cls-3" x="854.46" y="240.98" width="69.08" height="12.59"/><rect class="cls-8" x="906.53" y="136.96" width="12.5" height="10.43"/><rect class="cls-8" x="876.5" y="190.18" width="27.32" height="10.3"/><rect class="cls-8" x="867.19" y="163.08" width="14.77" height="10.35"/><rect class="cls-8" x="876.5" y="216.37" width="14.77" height="10.35"/><rect class="cls-8" x="858.8" y="243.22" width="14.77" height="10.35"/><rect class="cls-8" x="905.4" y="216.37" width="14.77" height="10.35"/><polygon class="cls-7" points="631.9 280.04 693.44 280.04 693.44 267.19 689.75 267.19 689.75 110.16 620.03 73.5 619.88 280.04 631.9 280.04"/><polygon class="cls-3" points="627.35 87.99 627.35 96.96 647.86 96.96 627.35 87.99"/><polygon class="cls-3" points="627.35 101.02 627.35 108.64 672.18 108.64 655.61 101.02 627.35 101.02"/><polygon class="cls-3" points="627.35 112.71 627.35 120.32 681.96 120.32 681.93 112.71 627.35 112.71"/><rect class="cls-3" x="627.35" y="124.39" width="54.98" height="7.61"/><rect class="cls-3" x="627.35" y="136.07" width="54.98" height="7.61"/><rect class="cls-3" x="627.35" y="147.75" width="54.98" height="7.61"/><rect class="cls-3" x="627.35" y="159.43" width="54.98" height="7.61"/><rect class="cls-8" x="653.48" y="159.43" width="28.85" height="7.61"/><rect class="cls-8" x="627.35" y="124.39" width="28.85" height="7.61"/><rect class="cls-3" x="627.35" y="171.12" width="54.98" height="7.61"/><rect class="cls-3" x="627.35" y="182.8" width="54.98" height="7.61"/><rect class="cls-3" x="627.35" y="194.47" width="54.98" height="7.61"/><rect class="cls-3" x="627.35" y="206.16" width="54.98" height="7.61"/><rect class="cls-3" x="627.35" y="217.84" width="54.98" height="7.61"/><rect class="cls-3" x="627.35" y="229.52" width="54.98" height="7.6"/><rect class="cls-3" x="627.35" y="241.2" width="54.98" height="7.61"/><rect class="cls-3" x="627.35" y="252.88" width="54.98" height="7.61"/><rect class="cls-8" x="639.05" y="171.12" width="28.85" height="7.61"/><rect class="cls-8" x="639.05" y="229.52" width="28.85" height="7.61"/><rect class="cls-8" x="668.98" y="194.48" width="13.35" height="7.61"/><rect class="cls-8" x="627.35" y="241.2" width="13.35" height="7.61"/><rect class="cls-8" x="627.35" y="217.74" width="22.42" height="7.61"/><rect class="cls-3" x="646.85" y="265.35" width="23.5" height="14.69"/><polygon class="cls-2" points="173.88 280.04 235.41 280.04 235.41 267.19 231.72 267.19 231.72 47.71 162 47.71 161.86 280.04 173.88 280.04"/><polygon class="cls-3" points="169.32 112.71 169.32 120.32 223.93 120.32 223.91 112.71 169.32 112.71"/><rect class="cls-3" x="169.32" y="124.39" width="54.98" height="7.61"/><rect class="cls-3" x="169.32" y="136.07" width="54.98" height="7.61"/><rect class="cls-3" x="169.32" y="147.75" width="54.98" height="7.61"/><rect class="cls-3" x="169.32" y="159.43" width="54.98" height="7.61"/><rect class="cls-4" x="195.45" y="159.43" width="28.85" height="7.61"/><rect class="cls-4" x="169.32" y="124.39" width="28.85" height="7.61"/><rect class="cls-3" x="169.32" y="171.12" width="54.98" height="7.61"/><rect class="cls-3" x="169.32" y="182.8" width="54.98" height="7.61"/><rect class="cls-3" x="169.32" y="194.47" width="54.98" height="7.61"/><rect class="cls-3" x="169.32" y="206.16" width="54.98" height="7.61"/><rect class="cls-3" x="169.32" y="217.84" width="54.98" height="7.61"/><rect class="cls-3" x="169.32" y="229.52" width="54.98" height="7.6"/><rect class="cls-3" x="169.32" y="241.2" width="54.98" height="7.61"/><rect class="cls-3" x="169.32" y="252.88" width="54.98" height="7.61"/><rect class="cls-4" x="181.03" y="171.12" width="28.85" height="7.61"/><rect class="cls-3" x="169.32" y="65.43" width="54.98" height="7.61"/><rect class="cls-3" x="169.32" y="77.11" width="54.98" height="7.61"/><rect class="cls-4" x="195.45" y="77.11" width="28.85" height="7.61"/><rect class="cls-3" x="169.32" y="88.79" width="54.98" height="7.61"/><rect class="cls-3" x="169.32" y="100.47" width="54.98" height="7.61"/><rect class="cls-4" x="181.03" y="88.79" width="28.85" height="7.61"/><rect class="cls-4" x="181.03" y="229.52" width="28.85" height="7.61"/><rect class="cls-4" x="210.95" y="194.48" width="13.35" height="7.61"/><rect class="cls-4" x="169.32" y="241.2" width="13.35" height="7.61"/><rect class="cls-4" x="169.32" y="217.74" width="22.42" height="7.61"/><rect class="cls-3" x="188.82" y="265.35" width="23.5" height="14.69"/><rect class="cls-7" x="225.98" y="128.19" width="64.99" height="151.84"/><rect class="cls-3" x="236.1" y="166.89" width="13.27" height="20.72"/><rect class="cls-3" x="236.1" y="192.52" width="13.27" height="20.72"/><rect class="cls-3" x="252.95" y="166.89" width="13.27" height="20.72"/><rect class="cls-3" x="252.95" y="141.64" width="13.27" height="20.72"/><rect class="cls-3" x="236.1" y="141.64" width="13.27" height="20.72"/><rect class="cls-3" x="252.95" y="192.52" width="13.27" height="20.72"/><rect class="cls-3" x="270.05" y="166.89" width="13.27" height="20.72"/><rect class="cls-3" x="270.05" y="141.64" width="13.27" height="20.72"/><rect class="cls-3" x="270.05" y="192.52" width="13.27" height="20.72"/><rect class="cls-10" x="255.02" y="141.96" width="11.33" height="18.76"/><rect class="cls-10" x="237.68" y="166.89" width="11.43" height="19.02"/><rect class="cls-10" x="271.95" y="192.52" width="11.43" height="19.02"/><rect class="cls-3" x="236.1" y="218.02" width="13.27" height="20.72"/><rect class="cls-3" x="236.1" y="243.65" width="13.27" height="20.72"/><rect class="cls-3" x="252.95" y="218.02" width="13.27" height="20.72"/><rect class="cls-3" x="252.95" y="243.65" width="13.27" height="20.72"/><rect class="cls-3" x="270.05" y="218.02" width="13.27" height="20.72"/><rect class="cls-3" x="270.05" y="243.65" width="13.27" height="20.72"/><rect class="cls-10" x="254.97" y="218.02" width="11.43" height="19.02"/><rect class="cls-10" x="254.97" y="243.81" width="11.43" height="19.02"/><rect class="cls-10" x="237.68" y="218.02" width="11.43" height="19.02"/><rect class="cls-7" x="55.88" y="182.8" width="77.48" height="97.24"/><rect class="cls-3" x="63.64" y="193.13" width="61.82" height="5.15"/><rect class="cls-3" x="63.64" y="202.01" width="61.82" height="5.15"/><rect class="cls-3" x="63.64" y="210.88" width="61.82" height="5.15"/><rect class="cls-3" x="63.64" y="219.76" width="61.82" height="5.15"/><rect class="cls-3" x="63.64" y="228.63" width="61.82" height="5.15"/><rect class="cls-3" x="63.64" y="237.51" width="61.82" height="5.15"/><rect class="cls-3" x="63.64" y="246.38" width="61.82" height="5.15"/><rect class="cls-3" x="63.64" y="255.25" width="61.82" height="5.15"/><rect class="cls-3" x="63.64" y="263.67" width="61.82" height="16.45"/><rect class="cls-10" x="110.78" y="193.13" width="14.68" height="3.66"/><rect class="cls-10" x="91.99" y="219.81" width="14.68" height="3.66"/><rect class="cls-10" x="82.88" y="202.01" width="22.32" height="3.66"/><rect class="cls-10" x="69.67" y="228.63" width="22.32" height="3.66"/><rect class="cls-10" x="63.64" y="210.88" width="22.32" height="3.66"/><rect class="cls-10" x="101.76" y="210.88" width="9.89" height="3.66"/><rect class="cls-10" x="63.64" y="237.54" width="22.32" height="3.66"/><rect class="cls-10" x="95.8" y="246.98" width="22.32" height="3.66"/><rect class="cls-10" x="115.56" y="237.54" width="9.89" height="3.66"/><rect class="cls-10" x="74.8" y="254.86" width="9.89" height="3.66"/><path class="cls-11" d="M314.22,280a20.69,20.69,0,1,1,41.39,0"/><path class="cls-11" d="M343.86,280a29.63,29.63,0,1,1,59.26,0"/><path class="cls-11" d="M144.55,280a13.8,13.8,0,1,1,27.59,0"/><path class="cls-11" d="M193.65,280a13.8,13.8,0,1,1,27.59,0"/><path class="cls-11" d="M934.26,280a13.8,13.8,0,1,1,27.59,0"/><path class="cls-11" d="M164.31,280a19.75,19.75,0,0,1,39.51,0"/><path class="cls-11" d="M834.75,280a23.71,23.71,0,1,1,47.42,0"/><path class="cls-11" d="M870.42,280a36,36,0,1,1,72,0"/><path class="cls-11" d="M491.46,280a23.71,23.71,0,1,1,47.42,0"/><path class="cls-11" d="M527.13,280a18,18,0,0,1,36,0"/><path class="cls-11" d="M657.88,280a18,18,0,0,1,36,0"/><path class="cls-11" d="M644.45,280a11.85,11.85,0,0,1,23.71,0"/></svg>