<?xml version="1.0" encoding="UTF-8"?>
<svg width="107px" height="60px" viewBox="0 0 107 60" version="1.1" xmlns="http://www.w3.org/2000/svg" xmlns:xlink="http://www.w3.org/1999/xlink">
<polygon fill="#ADCB2B" points="0,0 105.7,0 0,59.6 "/>
<path fill="#0B0340" d="M22.5,9.7c-5.7,0-10.2,4.6-10.2,10.2c0,4.5,2.9,8.4,7,9.7c0.5,0.1,0.7-0.2,0.7-0.5c0-0.2,0-1.1,0-1.9
	c-2.6,0.5-3.2-0.6-3.4-1.2c-0.1-0.3-0.6-1.2-1.1-1.4c-0.4-0.2-0.9-0.7,0-0.7c0.8,0,1.4,0.7,1.6,1.1c0.9,1.5,2.4,1.1,3,0.8
	c0.1-0.7,0.4-1.1,0.7-1.4c-2.3-0.3-4.7-1.1-4.7-5.1c0-1.1,0.4-2,1.1-2.8c-0.1-0.3-0.5-1.3,0.1-2.7c0,0,0.9-0.3,2.8,1.1
	c0.8-0.2,1.7-0.3,2.6-0.3c0.9,0,1.7,0.1,2.6,0.3c2-1.3,2.8-1.1,2.8-1.1c0.6,1.4,0.2,2.5,0.1,2.7c0.7,0.7,1.1,1.6,1.1,2.8
	c0,3.9-2.4,4.8-4.7,5.1c0.4,0.3,0.7,0.9,0.7,1.9c0,1.4,0,2.5,0,2.8c0,0.3,0.2,0.6,0.7,0.5c4.2-1.4,7-5.3,7-9.7
	C32.8,14.3,28.2,9.7,22.5,9.7z"/>
</svg>
