<?xml version="1.0" encoding="UTF-8"?>
<svg width="788px" height="112px" viewBox="0 0 788 112" version="1.1" xmlns="http://www.w3.org/2000/svg" xmlns:xlink="http://www.w3.org/1999/xlink">
    <!-- Generator: Sketch 49.3 (51167) - http://www.bohemiancoding.com/sketch -->
    <title>Group</title>
    <desc>Created with Sketch.</desc>
    <defs></defs>
    <g id="Page-1" stroke="none" stroke-width="1" fill="none" fill-rule="evenodd">
        <g id="Nodeconf--Home" transform="translate(-326.000000, -336.000000)" fill="#ADCB2B">
            <g id="Group" transform="translate(326.500000, 336.498487)">
                <polygon id="Fill-7" points="23.2115607 2.54542048 67.5397339 73.796983 67.8351255 73.796983 67.8351255 2.54542048 89.7018772 2.54542048 89.7018772 108.758133 66.3348472 108.758133 22.16603 37.6426063 21.8628649 37.6426063 21.8628649 108.758133 0 108.758133 0 2.54542048"></polygon>
                <path d="M104.72837,34.0034595 C107.095389,27.2094528 110.535147,21.2821872 114.989341,16.2255495 C119.459082,11.165025 124.927714,7.20055885 131.418555,4.32437751 C137.917171,1.44819617 145.235886,0.00233203892 153.359155,0.00233203892 C161.591252,0.00233203892 168.929402,1.44819617 175.381376,4.32437751 C181.829463,7.20055885 187.278661,11.1611383 191.744516,16.2255495 C196.214257,21.2783005 199.638467,27.2094528 202.021034,34.0034595 C204.395827,40.7896928 205.58128,48.1550491 205.58128,56.0878681 C205.58128,63.8224639 204.395827,71.0362376 202.021034,77.7330761 C199.638467,84.4260278 196.214257,90.2600118 191.744516,95.2078211 C187.278661,100.167291 181.829463,104.061796 175.381376,106.887449 C168.937175,109.713103 161.599026,111.123987 153.359155,111.123987 C145.235886,111.123987 137.917171,109.71699 131.418555,106.887449 C124.927714,104.061796 119.459082,100.167291 114.989341,95.2078211 C110.535147,90.2600118 107.095389,84.4260278 104.72837,77.7330761 C102.34969,71.0362376 101.16035,63.8224639 101.16035,56.0878681 C101.16035,48.1550491 102.34969,40.7896928 104.72837,34.0034595" id="Fill-8"></path>
                <path d="M261.214789,89.11226 C264.588472,89.11226 267.8611,88.5720043 271.032673,87.475946 C274.215906,86.3876612 277.04156,84.5764443 279.529068,82.0578422 C281.997143,79.5159198 283.987149,76.2238582 285.46022,72.1544503 C286.948839,68.0928158 287.695091,63.1372331 287.695091,57.2838154 C287.695091,51.9240126 287.182043,47.0928053 286.128738,42.7863068 C285.090981,38.4720348 283.392479,34.7796398 281.006026,31.7013484 C278.62346,28.6230571 275.486867,26.2754712 271.557382,24.6352705 C267.631783,23.0028433 262.812236,22.1827429 257.059873,22.1827429 L240.397455,22.1827429 L240.397455,89.1200335 L261.214789,89.1200335 L261.214789,89.11226 Z M262.85499,2.54697518 C269.691751,2.54697518 276.062104,3.63526001 281.962162,5.81182967 C287.862221,7.98839933 292.965499,11.2726875 297.291431,15.6336003 C301.59793,19.9945131 304.9755,25.4514841 307.41248,31.9889666 C309.82614,38.5381092 311.054348,46.2260642 311.054348,55.0567183 C311.054348,62.7835406 310.059344,69.9273531 308.073225,76.4687223 C306.090991,83.0178649 303.086548,88.6730593 299.075441,93.4304187 C295.056561,98.1916649 290.054337,101.926814 284.053224,104.659186 C278.055997,107.391558 270.978259,108.755801 262.85499,108.755801 L217.030425,108.755801 L217.030425,2.54697518 L262.85499,2.54697518 Z" id="Fill-10"></path>
                <polygon id="Fill-12" points="402.232405 2.54542048 402.232405 22.1811882 346.15853 22.1811882 346.15853 44.9341146 397.614968 44.9341146 397.614968 63.0812642 346.15853 63.0812642 346.15853 89.1107053 403.417859 89.1107053 403.417859 108.754246 322.795386 108.754246 322.795386 2.54542048"></polygon>
                <path d="M482.870425,30.8761953 C481.463428,28.637438 479.729946,26.6862987 477.662204,25.003344 C475.571143,23.3126158 473.21967,21.9989005 470.584466,21.0583115 C467.960922,20.1177224 465.209117,19.6435412 462.329048,19.6435412 C457.070301,19.6435412 452.608333,20.6696383 448.954805,22.6907387 C445.281844,24.7312728 442.292947,27.4519849 440.011436,30.8723086 C437.753245,34.2926324 436.074177,38.1910241 435.032533,42.5441634 C433.994776,46.9167364 433.47784,51.4214582 433.47784,56.0855361 C433.47784,60.5552774 433.994776,64.888983 435.032533,69.0983133 C436.074177,73.315417 437.753245,77.1127537 440.011436,80.4903234 C442.292947,83.8523462 445.281844,86.5575114 448.954805,88.5902719 C452.608333,90.6230325 457.070301,91.6374695 462.329048,91.6374695 C469.465088,91.6374695 475.046434,89.4608998 479.057541,85.0922136 C483.080308,80.7351875 485.536722,74.9750514 486.434557,67.8351255 L509.043675,67.8351255 C508.445118,74.4775497 506.913746,80.4903234 504.422351,85.8423527 C501.954277,91.1943821 498.681649,95.7535182 494.616127,99.5275345 C490.542833,103.289891 485.7777,106.169959 480.328502,108.144418 C474.867644,110.130538 468.882078,111.121655 462.329048,111.121655 C454.20578,111.121655 446.887064,109.714658 440.388449,106.877344 C433.901494,104.055577 428.417316,100.157185 423.959235,95.2016023 C419.485607,90.2499063 416.06917,84.4159223 413.686603,77.7268573 C411.315697,71.0300189 410.118584,63.8201319 410.118584,56.0777626 C410.118584,48.1488303 411.315697,40.7795873 413.686603,33.993354 C416.06917,27.203234 419.485607,21.2759684 423.959235,16.2193307 C428.417316,11.1588062 433.901494,7.19434008 440.388449,4.31815874 C446.887064,1.4419774 454.20578,0 462.329048,0 C468.182466,0 473.713285,0.839534012 478.909845,2.53414896 C484.137499,4.21321699 488.789917,6.66963132 492.898192,9.89173176 C497.022014,13.1177189 500.411244,17.1093922 503.093089,21.8706384 C505.77882,26.6318845 507.450115,32.0810821 508.138066,38.2376649 L485.536722,38.2376649 C485.148049,35.5597068 484.234667,33.111066 482.870425,30.8761953" id="Fill-14"></path>
                <polygon id="Fill-16" points="629.672664 2.54542048 674.000837 73.796983 674.280681 73.796983 674.280681 2.54542048 696.143546 2.54542048 696.143546 108.758133 672.803723 108.758133 628.623246 37.6426063 628.304534 37.6426063 628.304534 108.758133 606.468876 108.758133 606.468876 2.54542048"></polygon>
                <polygon id="Fill-18" points="786.908445 2.54542048 786.908445 22.1811882 735.576381 22.1811882 735.576381 46.7220111 780.04059 46.7220111 780.04059 64.8691607 735.576381 64.8691607 735.576381 108.758133 712.209351 108.758133 712.209351 2.54542048"></polygon>
                <path d="M557.66552,18.6652509 C578.047541,18.6652509 594.570036,35.1877466 594.570036,55.5658801 C594.570036,75.9479003 578.047541,92.470396 557.66552,92.470396 C537.287387,92.470396 520.761004,75.9479003 520.761004,55.5658801 C520.761004,35.1877466 537.287387,18.6652509 557.66552,18.6652509" id="Fill-20"></path>
            </g>
        </g>
    </g>
</svg>