<svg xmlns="http://www.w3.org/2000/svg" xmlns:xlink="http://www.w3.org/1999/xlink" width="250" height="288.991" viewBox="-26.421 -30.542 250 288.991"><path fill="#F2F2F2" d="M-23.724 42.078l123.001-69.52 121.605 69.52v142.165L99.277 255.325l-123.001-71.7z"/><path fill="#BCD636" d="M-22.081 67.775L9.833 48.23l-.127 47.624 20.437-12.19V66.581l27.123-15.257V27.15l19.025-10.754.09 42.996 23.145-13.985.183-17.326 18.964 10.366v-27.37l16.996 9.715.07 27.661L151.69 56.8l.223-39.163 16.807 9.52.085 55.398 19.868 12.19v-38.78l30.473 17.973.091 110.062-119.62-70.058-121.758 69.412z"/><path fill="#F2F2F2" d="M79.844 151.718l19.414 12.129V-7.325l-6.796 4.53z"/><path fill="#1B2024" d="M100.065 165.309l-21.07-13.164.041-.491L91.688-3.25l8.376-5.587v174.146h.001zm-19.374-14.016l17.757 11.094V-5.814l-5.21 3.475-12.547 153.632z"/><path fill="#F2F2F2" d="M118.673 151.718l-19.415 12.129V-7.325l6.798 4.53z"/><path fill="#1B2024" d="M98.449 165.309V-8.837l8.378 5.587.031.389 12.658 155.006-21.067 13.164zm1.616-171.123v168.202l17.761-11.094L105.278-2.338l-5.213-3.476z"/><path fill="#F2F2F2" d="M99.275.448l-.204-12.736-6.609 9.493z"/><path fill="#1B2024" d="M99.275 1.257a.807.807 0 0 1-.348-.077l-6.813-3.245a.797.797 0 0 1-.434-.524.806.806 0 0 1 .118-.669l6.609-9.492a.81.81 0 0 1 1.472.449l.205 12.738a.798.798 0 0 1-.374.692.8.8 0 0 1-.435.128zm-5.603-4.372l4.772 2.272-.142-8.924-4.63 6.652z"/><path fill="#F2F2F2" d="M99.275.448l-.116-12.717 6.897 9.263z"/><path fill="#1B2024" d="M99.275 1.257a.813.813 0 0 1-.422-.117.813.813 0 0 1-.388-.685l-.12-12.717a.812.812 0 0 1 .551-.773.806.806 0 0 1 .908.284L106.7-3.49a.81.81 0 0 1-.282 1.205L99.64 1.169a.78.78 0 0 1-.365.088zm.716-11.052l.083 8.929 4.759-2.425-4.842-6.504zM48.214 68.298h102.911v21.843H48.214z"/><g fill="#1B2024"><path d="M10.161 36.751l10.773 17.316h.07V36.751h5.316v25.813h-5.678L9.907 45.283h-.074v17.282H4.52V36.751h5.641zm19.812 7.647c.577-1.651 1.411-3.091 2.493-4.32 1.087-1.229 2.416-2.192 3.993-2.892 1.58-.699 3.357-1.049 5.333-1.049 2.001 0 3.784.35 5.351 1.049 1.566.7 2.891 1.663 3.975 2.892 1.086 1.229 1.919 2.669 2.498 4.32.577 1.649.865 3.44.865 5.368 0 1.88-.289 3.634-.865 5.261-.579 1.626-1.412 3.044-2.498 4.248-1.084 1.205-2.409 2.152-3.975 2.838-1.567.687-3.352 1.029-5.351 1.029-1.976 0-3.753-.342-5.333-1.029-1.577-.688-2.906-1.633-3.993-2.838-1.083-1.204-1.917-2.621-2.493-4.248-.579-1.626-.867-3.38-.867-5.261-.001-1.928.288-3.719.867-5.368zm38.428-7.647c1.664 0 3.211.265 4.645.794a10.124 10.124 0 0 1 3.726 2.387c1.046 1.059 1.868 2.385 2.46 3.975.587 1.591.885 3.46.885 5.604 0 1.878-.242 3.615-.724 5.204-.482 1.592-1.212 2.965-2.188 4.122-.978 1.157-2.192 2.067-3.652 2.729-1.457.663-3.176.995-5.152.995H57.266v-25.81h11.135zm-.398 21.041c.819 0 1.616-.132 2.386-.397a5.283 5.283 0 0 0 2.064-1.319c.6-.617 1.084-1.418 1.441-2.405.363-.988.544-2.192.544-3.615 0-1.302-.125-2.477-.38-3.524-.252-1.049-.666-1.948-1.246-2.694-.58-.748-1.342-1.32-2.297-1.717-.954-.397-2.125-.597-3.524-.597h-4.05v16.268h5.062zm34.273-21.041v4.773H88.648v5.53h12.507v4.41H88.648v6.328h13.921v4.772H82.972V36.751h19.304zm19.598 6.888a5.893 5.893 0 0 0-1.266-1.428 5.809 5.809 0 0 0-1.719-.958 5.903 5.903 0 0 0-2.006-.344c-1.279 0-2.362.248-3.25.742a6.19 6.19 0 0 0-2.176 1.988 8.841 8.841 0 0 0-1.208 2.838 14.19 14.19 0 0 0-.378 3.289c0 1.085.126 2.139.378 3.164s.66 1.947 1.208 2.768a6.212 6.212 0 0 0 2.176 1.968c.888.496 1.972.743 3.25.743 1.732 0 3.091-.531 4.064-1.591.978-1.059 1.573-2.458 1.794-4.193h5.493c-.145 1.613-.517 3.074-1.122 4.375-.601 1.3-1.397 2.408-2.384 3.326a10.166 10.166 0 0 1-3.474 2.096c-1.326.48-2.779.723-4.372.723-1.977 0-3.755-.342-5.332-1.03-1.578-.687-2.91-1.633-3.993-2.837-1.086-1.204-1.919-2.621-2.498-4.248-.574-1.626-.867-3.381-.867-5.261 0-1.927.29-3.718.867-5.367.579-1.651 1.409-3.091 2.498-4.32 1.083-1.23 2.415-2.192 3.993-2.892 1.577-.699 3.355-1.049 5.332-1.049 1.42 0 2.767.206 4.029.615a10.84 10.84 0 0 1 3.399 1.789 9.672 9.672 0 0 1 2.478 2.91c.654 1.158 1.059 2.481 1.228 3.978h-5.494a4.707 4.707 0 0 0-.648-1.794zm35.678-6.888l10.773 17.316h.069V36.751h5.312v25.813h-5.674l-10.736-17.282h-.075v17.282h-5.312V36.751h5.643zm38.215 0v4.773h-12.475v5.964h10.807V51.9h-10.807v10.666h-5.68V36.751h18.155z"/><circle cx="140.053" cy="49.64" r="8.97"/></g><path d="M56.146 85.392h-1.593l3.926-12.738h1.681l3.947 12.738h-1.749l-.87-2.798h-4.479l-.863 2.798zm1.256-4.072h3.717l-1.534-4.833-.356-1.295-.322 1.295-1.505 4.833zm9.849-1.345v5.417h-1.659V72.653h3.403c1.109 0 1.927.114 2.451.34.526.227.931.571 1.219 1.03.287.459.43.953.43 1.483 0 .492-.097.987-.288 1.483-.19.499-.454.942-.79 1.333-.335.391-.82.761-1.453 1.111l3.684 5.957h-1.976L68.9 79.974l-1.649.001zm0-1.272h2.313c.521-.285.909-.575 1.164-.872.254-.295.447-.611.578-.944.132-.335.197-.67.197-1.004 0-.597-.216-1.073-.65-1.426-.435-.354-1.222-.531-2.363-.531h-1.237l-.002 4.777zm16.136 6.68c-.898.263-1.721.395-2.471.395-1.061 0-2.007-.263-2.836-.788-.83-.526-1.479-1.317-1.951-2.376-.47-1.059-.705-2.255-.705-3.59 0-1.319.229-2.503.688-3.553.46-1.051 1.108-1.848 1.945-2.388a4.974 4.974 0 0 1 2.756-.813c.756 0 1.609.176 2.562.53v1.51c-.88-.511-1.754-.769-2.625-.769-.657 0-1.257.224-1.801.674-.545.448-.982 1.107-1.314 1.975-.333.869-.497 1.817-.497 2.847 0 1.379.314 2.636.944 3.77.629 1.134 1.623 1.7 2.98 1.7.176 0 .396-.014.664-.042v-4.104h-1.271V79.09h2.932v6.293zm9.7-1.394v1.403h-6.876V72.653h6.754v1.281h-5.098v4.326h4.588v1.271h-4.588v4.458h5.22zm4.103 1.403h-1.525V72.653h1.493l4.497 8.479.494 1.265h.04l-.04-1.265v-8.479h1.525V85.39h-1.525l-4.376-8.333-.615-1.338.033 1.321v8.352zm11.738 0V74.058h-3.817v-1.404h9.292v1.404h-3.817V85.39h-1.657v.002zm7.287 0V84.12h2.799V73.927h-2.799v-1.272h7.257v1.272h-2.8V84.12h2.8v1.272h-7.257zm11.236 0h-1.525V72.653h1.493l4.498 8.479.493 1.265h.042l-.042-1.265v-8.479h1.526V85.39h-1.526l-4.374-8.333-.615-1.338.033 1.321v8.352h-.003zm9.39 0h-1.593l3.928-12.738h1.681l3.943 12.738h-1.746l-.871-2.798h-4.478l-.864 2.798zm1.258-4.072h3.716l-1.534-4.833-.356-1.295-.322 1.295-1.504 4.833zm53.958 94.228s7.62.112 11.072 6.164l4.776-2.711s-5.605-7.023-13.248-7.023" fill="#F2F2F2"/><path fill="#1B2024" d="M202.827 182.813l-.401-.7c-3.187-5.588-10.308-5.754-10.379-5.756l.02-1.616c.319.004 7.556.18 11.343 5.883l3.226-1.832c-1.633-1.729-6.245-6.002-11.978-6.002v-1.619c7.944 0 13.641 7.029 13.879 7.327l.589.739-6.299 3.576z"/><path fill="#F2F2F2" d="M116.163 186.521s11.119 14.253 8.502 28.382l20.088 1.674s1.976-23.146 19.409-30.447"/><path fill="#1B2024" d="M144.753 217.388a.468.468 0 0 1-.066-.004l-20.091-1.677a.792.792 0 0 1-.574-.314.799.799 0 0 1-.151-.639c2.517-13.595-8.234-27.596-8.346-27.735l1.276-.993c.454.579 10.871 14.133 8.803 28.143l18.432 1.539c.235-1.833.995-6.562 3.133-11.915 3.578-8.969 9.349-15.338 16.679-18.406l.628 1.491c-16.771 7.021-18.895 29.543-18.917 29.771a.81.81 0 0 1-.806.739z"/><path fill="#F2F2F2" d="M192.639 177.895s-2.007 10.506-3.445 12.729l-7.789 4.569-13.443-8.623"/><path fill="#1B2024" d="M181.385 196.142l-13.858-8.894.876-1.358 13.021 8.354 7.184-4.214c1.11-1.986 2.704-9.485 3.24-12.283l1.592.302c-.213 1.092-2.083 10.727-3.566 13.016l-.104.161-8.385 4.916z"/><path fill="#F2F2F2" d="M144.753 216.577l3.581-2.067s-.075-16.586 19.673-28.749l-4.738.766c-.003-.001-15.903 6.431-18.516 30.05z"/><path fill="#1B2024" d="M144.753 217.388a.81.81 0 0 1-.804-.897c1.374-12.426 6.441-20.102 10.454-24.352 4.372-4.634 8.391-6.296 8.562-6.365.057-.021.116-.037.178-.048l4.738-.767a.799.799 0 0 1 .884.518.808.808 0 0 1-.332.971c-19.142 11.789-19.287 27.895-19.287 28.058a.808.808 0 0 1-.404.703l-3.583 2.07a.825.825 0 0 1-.406.109zm18.74-30.078c-1.15.511-14.805 7.034-17.734 27.754l1.778-1.028c.135-2.717 1.58-15.954 16.9-26.88l-.944.154z"/><path fill="#F2F2F2" d="M181.407 195.194l-20.688-3.997c3.02-2.95 6.551-5.067 6.551-5.067l14.137 9.064z"/><path fill="#1B2024" d="M181.407 196.003a.744.744 0 0 1-.156-.016l-20.685-3.999a.797.797 0 0 1-.622-.557.815.815 0 0 1 .208-.812c3.056-2.983 6.556-5.097 6.702-5.184a.815.815 0 0 1 .854.015l14.134 9.061a.81.81 0 0 1-.435 1.492zm-18.964-5.296l14.978 2.894-10.155-6.512a41.135 41.135 0 0 0-4.823 3.618z"/><path fill="#F2F2F2" d="M98.234 176.161s-8.431 4.961-9.217 9.67l-4.308-1.086s4.841-12.096 11.294-12.096"/><path fill="#1B2024" d="M89.67 186.828l-6.056-1.525.343-.859c.207-.514 5.126-12.603 12.046-12.603v1.616c-4.887 0-8.958 8.059-10.173 10.736l2.6.653c1.551-4.72 9.056-9.183 9.396-9.381l.819 1.395c-2.256 1.328-8.237 5.552-8.829 9.106l-.146.862z"/><path fill="#F2F2F2" d="M181.368 146.009c14.913 2.354 18.894 11.401 18.894 11.401v14.667c-10.391 9.758-21.731 17.471-61.942 16.712-40.216-.761-48.889-14.538-48.889-14.538v-14.387s3.138-7.583 17.265-11.377"/><path fill="#1B2024" d="M143.726 189.651c-1.749 0-3.555-.02-5.42-.053-40.191-.762-49.196-14.339-49.561-14.914l-.125-.197v-14.783l.061-.146c.136-.327 3.458-7.998 17.805-11.849l.419 1.56c-12.568 3.374-16.17 9.778-16.667 10.774v13.948c1.197 1.565 11.381 13.297 48.099 13.988 39.468.745 50.751-6.567 61.115-16.252v-14.132c-.579-1.12-4.963-8.697-18.208-10.785l.253-1.602c15.169 2.396 19.334 11.488 19.506 11.872l.069.156v15.188l-.255.24c-10.216 9.599-21.067 16.987-57.091 16.987z"/><path fill="#F2F2F2" d="M89.43 159.865s5.859 15.056 55.12 15.056c46.902 0 55.712-17.51 55.712-17.51"/><path fill="#1B2024" d="M144.55 175.728c-49.251 0-55.628-14.935-55.875-15.569l1.506-.594c.058.146 6.503 14.547 54.369 14.547 45.873 0 54.901-16.895 54.988-17.066l1.441.727c-.364.732-9.567 17.955-56.429 17.955z"/><path fill="#F2F2F2" d="M106.036 157.512s-1.579-41.517 37.404-42.766c36.75-1.178 39.628 40.995 39.628 40.995s-7.685 11.382-38.03 11.219c-30.34-.163-39.002-9.448-39.002-9.448z"/><path fill="#1B2024" d="M145.68 167.77h-.646c-30.341-.163-39.225-9.316-39.586-9.705l-.203-.221-.018-.3c-.026-.8-.606-19.714 11.308-32.49 6.539-7.014 15.581-10.754 26.879-11.115a49.38 49.38 0 0 1 1.525-.025c35.679 0 38.909 41.357 38.938 41.776l.018.274-.153.232c-.319.471-8.168 11.574-38.062 11.574zm-38.839-10.612c1.494 1.325 11.157 8.85 38.204 8.995l.635.003c15.129 0 24.317-2.965 29.36-5.451 4.557-2.246 6.629-4.513 7.199-5.203-.359-3.686-4.712-39.97-37.301-39.97-.482 0-.977.007-1.471.021-10.854.35-19.515 3.913-25.749 10.601-10.629 11.405-10.899 28.448-10.877 31.004z"/><defs><path id="a" d="M106.036 157.329s-1.579-41.515 37.404-42.766c36.75-1.177 39.628 40.996 39.628 40.996s-7.685 11.384-38.03 11.221c-30.34-.165-39.002-9.451-39.002-9.451z"/></defs><clipPath id="b"><use xlink:href="#a" overflow="visible"/></clipPath><g clip-path="url(#b)" fill="#1B2024"><path d="M103.052 172.211l1.603-.934-.938 1.6.938 1.603-1.603-.935-1.6.935.933-1.603-.933-1.6zm8.36 0l1.601-.934-.934 1.6.934 1.603-1.601-.935-1.603.935.935-1.603-.935-1.6zm8.359 0l1.603-.934-.934 1.6.934 1.603-1.603-.935-1.602.935.936-1.603-.936-1.6zm8.359 0l1.6-.934-.932 1.6.932 1.603-1.6-.935-1.601.935.938-1.603-.938-1.6zm8.361 0l1.603-.934-.936 1.6.936 1.603-1.603-.935-1.603.935.937-1.603-.937-1.6zm8.362 0l1.601-.934-.938 1.6.938 1.603-1.601-.935-1.603.935.934-1.603-.934-1.6zm8.357 0l1.608-.934-.944 1.6.944 1.603-1.608-.935-1.605.935.942-1.603-.942-1.6zm8.36 0l1.604-.934-.939 1.6.939 1.603-1.604-.935-1.603.935.938-1.603-.938-1.6zm8.361 0l1.601-.934-.934 1.6.934 1.603-1.601-.935-1.603.935.938-1.603-.938-1.6zm8.36 0l1.603-.934-.938 1.6.938 1.603-1.603-.935-1.605.935.939-1.603-.939-1.6zm-75.239-16.423l1.603-.936-.938 1.601.938 1.603-1.603-.935-1.6.935.933-1.603-.933-1.601zm8.36 0l1.601-.936-.934 1.601.934 1.603-1.601-.935-1.603.935.935-1.603-.935-1.601zm8.359 0l1.603-.936-.934 1.601.934 1.603-1.603-.935-1.602.935.936-1.603-.936-1.601zm8.359 0l1.6-.936-.932 1.601.932 1.603-1.6-.935-1.601.935.938-1.603-.938-1.601zm8.361 0l1.603-.936-.936 1.601.936 1.603-1.603-.935-1.603.935.937-1.603-.937-1.601zm8.362 0l1.601-.936-.938 1.601.938 1.603-1.601-.935-1.603.935.934-1.603-.934-1.601zm8.357 0l1.608-.936-.944 1.601.944 1.603-1.608-.935-1.605.935.942-1.603-.942-1.601zm8.36 0l1.604-.936-.939 1.601.939 1.603-1.604-.935-1.603.935.938-1.603-.938-1.601zm8.361 0l1.601-.936-.934 1.601.934 1.603-1.601-.935-1.603.935.938-1.603-.938-1.601zm8.36 0l1.603-.936-.938 1.601.938 1.603-1.603-.935-1.605.935.939-1.603-.939-1.601zm-71.061 8.211l1.605-.937-.937 1.603.937 1.602-1.605-.934-1.597.934.932-1.602-.932-1.603zm8.36 0l1.601-.937-.931 1.603.931 1.602-1.601-.934-1.599.934.934-1.602-.934-1.603zm8.363 0l1.602-.937-.939 1.603.939 1.602-1.602-.934-1.604.934.937-1.602-.937-1.603zm8.358 0l1.602-.937-.934 1.603.934 1.602-1.602-.934-1.603.934.937-1.602-.937-1.603zm8.358 0l1.606-.937-.937 1.603.937 1.602-1.606-.934-1.603.934.942-1.602-.942-1.603zm8.361 0l1.604-.937-.935 1.603.935 1.602-1.604-.934-1.604.934.939-1.602-.939-1.603zm8.362 0l1.599-.937-.933 1.603.933 1.602-1.599-.934-1.603.934.936-1.602-.936-1.603zm8.36 0l1.605-.937-.942 1.603.942 1.602-1.605-.934-1.606.934.938-1.602-.938-1.603zm8.358 0l1.605-.937-.94 1.603.94 1.602-1.605-.934-1.605.934.938-1.602-.938-1.603zm8.36 0l1.601-.937-.935 1.603.935 1.602-1.601-.934-1.606.934.937-1.602-.937-1.603zm-75.24-16.423l1.605-.936-.937 1.603.937 1.601-1.605-.935-1.597.935.932-1.601-.932-1.603zm8.36 0l1.601-.936-.931 1.603.931 1.601-1.601-.935-1.599.935.934-1.601-.934-1.603zm8.363 0l1.602-.936-.939 1.603.939 1.601-1.602-.935-1.604.935.937-1.601-.937-1.603zm8.358 0l1.602-.936-.934 1.603.934 1.601-1.602-.935-1.603.935.937-1.601-.937-1.603zm8.358 0l1.606-.936-.937 1.603.937 1.601-1.606-.935-1.603.935.942-1.601-.942-1.603zm8.361 0l1.604-.936-.935 1.603.935 1.601-1.604-.935-1.604.935.939-1.601-.939-1.603zm8.362 0l1.599-.936-.933 1.603.933 1.601-1.599-.935-1.603.935.936-1.601-.936-1.603zm8.36 0l1.605-.936-.942 1.603.942 1.601-1.605-.935-1.606.935.938-1.601-.938-1.603zm8.358 0l1.605-.936-.94 1.603.94 1.601-1.605-.935-1.605.935.938-1.601-.938-1.603zm8.36 0l1.601-.936-.935 1.603.935 1.601-1.601-.935-1.606.935.937-1.601-.937-1.603zm-79.418-8.212l1.603-.937-.938 1.602.938 1.605-1.603-.938-1.6.938.933-1.605-.933-1.602zm8.36 0l1.601-.937-.934 1.602.934 1.605-1.601-.938-1.603.938.935-1.605-.935-1.602zm8.359 0l1.603-.937-.934 1.602.934 1.605-1.603-.938-1.602.938.936-1.605-.936-1.602zm8.359 0l1.6-.937-.932 1.602.932 1.605-1.6-.938-1.601.938.938-1.605-.938-1.602zm8.361 0l1.603-.937-.936 1.602.936 1.605-1.603-.938-1.603.938.937-1.605-.937-1.602zm8.362 0l1.601-.937-.938 1.602.938 1.605-1.601-.938-1.603.938.934-1.605-.934-1.602zm8.357 0l1.608-.937-.944 1.602.944 1.605-1.608-.938-1.605.938.942-1.605-.942-1.602zm8.36 0l1.604-.937-.939 1.602.939 1.605-1.604-.938-1.603.938.938-1.605-.938-1.602zm8.361 0l1.601-.937-.934 1.602.934 1.605-1.601-.938-1.603.938.938-1.605-.938-1.602zm8.36 0l1.603-.937-.938 1.602.938 1.605-1.603-.938-1.605.938.939-1.605-.939-1.602zm-75.239-16.425l1.603-.937-.938 1.603.938 1.603-1.603-.937-1.6.937.933-1.603-.933-1.603zm8.36 0l1.601-.937-.934 1.603.934 1.603-1.601-.937-1.603.937.935-1.603-.935-1.603zm8.359 0l1.603-.937-.934 1.603.934 1.603-1.603-.937-1.602.937.936-1.603-.936-1.603zm8.359 0l1.6-.937-.932 1.603.932 1.603-1.6-.937-1.601.937.938-1.603-.938-1.603zm8.361 0l1.603-.937-.936 1.603.936 1.603-1.603-.937-1.603.937.937-1.603-.937-1.603zm8.362 0l1.601-.937-.938 1.603.938 1.603-1.601-.937-1.603.937.934-1.603-.934-1.603zm8.357 0l1.608-.937-.944 1.603.944 1.603-1.608-.937-1.605.937.942-1.603-.942-1.603zm8.36 0l1.604-.937-.939 1.603.939 1.603-1.604-.937-1.603.937.938-1.603-.938-1.603zm8.361 0l1.601-.937-.934 1.603.934 1.603-1.601-.937-1.603.937.938-1.603-.938-1.603zm8.36 0l1.603-.937-.938 1.603.938 1.603-1.603-.937-1.605.937.939-1.603-.939-1.603zm-71.061 8.211l1.605-.937-.937 1.605.937 1.601-1.605-.935-1.597.935.932-1.601-.932-1.605zm8.36 0l1.601-.937-.931 1.605.931 1.601-1.601-.935-1.599.935.934-1.601-.934-1.605zm8.363 0l1.602-.937-.939 1.605.939 1.601-1.602-.935-1.604.935.937-1.601-.937-1.605zm8.358 0l1.602-.937-.934 1.605.934 1.601-1.602-.935-1.603.935.937-1.601-.937-1.605zm8.358 0l1.606-.937-.937 1.605.937 1.601-1.606-.935-1.603.935.942-1.601-.942-1.605zm8.361 0l1.604-.937-.935 1.605.935 1.601-1.604-.935-1.604.935.939-1.601-.939-1.605zm8.362 0l1.599-.937-.933 1.605.933 1.601-1.599-.935-1.603.935.936-1.601-.936-1.605zm8.36 0l1.605-.937-.942 1.605.942 1.601-1.605-.935-1.606.935.938-1.601-.938-1.605zm8.358 0l1.605-.937-.94 1.605.94 1.601-1.605-.935-1.605.935.938-1.601-.938-1.605zm8.36 0l1.601-.937-.935 1.605.935 1.601-1.601-.935-1.606.935.937-1.601-.937-1.605zm-75.24-16.424l1.605-.935-.937 1.602.937 1.604-1.605-.936-1.597.936.932-1.604-.932-1.602zm8.36 0l1.601-.935-.931 1.602.931 1.604-1.601-.936-1.599.936.934-1.604-.934-1.602zm8.363 0l1.602-.935-.939 1.602.939 1.604-1.602-.936-1.604.936.937-1.604-.937-1.602zm8.358 0l1.602-.935-.934 1.602.934 1.604-1.602-.936-1.603.936.937-1.604-.937-1.602zm8.358 0l1.606-.935-.937 1.602.937 1.604-1.606-.936-1.603.936.942-1.604-.942-1.602zm8.361 0l1.604-.935-.935 1.602.935 1.604-1.604-.936-1.604.936.939-1.604-.939-1.602zm8.362 0l1.599-.935-.933 1.602.933 1.604-1.599-.936-1.603.936.936-1.604-.936-1.602zm8.36 0l1.605-.935-.942 1.602.942 1.604-1.605-.936-1.606.936.938-1.604-.938-1.602zm8.358 0l1.605-.935-.94 1.602.94 1.604-1.605-.936-1.605.936.938-1.604-.938-1.602zm8.36 0l1.601-.935-.935 1.602.935 1.604-1.601-.936-1.606.936.937-1.604-.937-1.602z"/></g><path fill="#F2F2F2" d="M56.919 174.838c17.062 7.502 44.06 20.499 54.892 73.164l-12.532 6.947-10.692-6.454-30.061-69.078-39.532-95.553s-.519.453-.748 1.027c-.227.577 29.939 106.199 29.939 106.199s-23.721-17.111-61.989-12.857l20.061-10.999s18.353-2.123 35.796 2.213"/><path fill="#1B2024" d="M99.263 255.883l-11.315-6.828-.102-.238-30.059-69.079-37.858-91.506c3.924 14.502 20.044 71.145 29.036 102.635l.64 2.238-1.891-1.359c-.235-.171-23.94-16.878-61.428-12.71l-4.063.45 23.782-13.038.159-.019c.181-.02 17.721-1.98 34.686 1.9-23.653-82.977-23.475-83.43-23.354-83.736.291-.735.898-1.278.968-1.337l.847-.742 37.914 91.631.021-.044c7.193 3.162 19.237 8.46 30.04 19.826 12.221 12.857 20.499 30.489 25.317 53.914l.119.582-13.459 7.46zm-10.036-7.945l10.068 6.078 11.601-6.432c-10.728-51.288-37.394-64.519-52.807-71.344l1.187 2.867 29.951 68.831zm-91.015-71.185c25.602 0 43.113 9.178 48.609 12.499a28353.41 28353.41 0 0 1-5.464-19.145c-16.107-3.886-33.061-2.271-34.855-2.087l-16.492 9.043c2.819-.213 5.553-.31 8.202-.31z"/><path fill="none" d="M43.8 174.841l-7.584 10.049"/><path fill="#1B2024" d="M36.854 185.38l-1.29-.976 7.591-10.04 1.291.976z"/><path fill="none" d="M38.281 156.385L21.378 180"/><path fill="#1B2024" d="M22.052 180.474l-1.317-.942 16.89-23.623 1.316.942z"/><path fill="none" d="M32.272 135.182L4.488 177.877"/><path fill="#1B2024" d="M5.186 178.313l-1.358-.883 27.767-42.707 1.358.883z"/><path fill="none" d="M24.123 106.701l-37.194 71.425"/><path fill="#1B2024" d="M-12.352 178.511l-1.434-.746 37.19-71.432 1.433.746z"/><path fill="#F2F2F2" d="M-23.41 183.151c84.576 1.739 93.264 54.323 93.264 54.323"/><path fill="#1B2024" d="M69.054 237.603c-.018-.129-2.309-13.128-14.777-26.16-11.526-12.046-34.362-26.594-77.706-27.485l.036-1.617c24.267.503 57.657 5.774 78.915 28.064 12.771 13.392 15.038 26.392 15.13 26.936l-1.598.262z"/><path fill="#F2F2F2" d="M98.987 255.137L19.047 83.486l-.343.566 68.458 163.881z"/><path fill="#1B2024" d="M98.987 255.947a.804.804 0 0 1-.421-.118l-11.823-7.207a.8.8 0 0 1-.327-.381L17.959 84.364a.8.8 0 0 1 .053-.732l.344-.566a.83.83 0 0 1 .735-.388.802.802 0 0 1 .688.466l79.938 171.652a.806.806 0 0 1-.73 1.151zm-11.177-8.571l9.316 5.679-67.43-144.784L87.81 247.376z"/><path fill="#1B2024" d="M99.28 258.449l-125.702-73.272V40.504L99.285-30.542l124.294 71.055v145.278L99.28 258.449zm-120.31-76.373l120.307 70.129 118.907-69.508V43.641L99.271-24.339-21.03 43.651v138.425z"/><path fill="none" d="M203.129 181.712l-11.34-.618"/><path fill="#1B2024" d="M203.08 182.526l-11.34-.617.087-1.614 11.34.617z"/></svg>