<?xml version="1.0" encoding="utf-8"?>
<!-- Generator: Adobe Illustrator 21.0.0, SVG Export Plug-In . SVG Version: 6.00 Build 0)  -->
<svg version="1.1" id="Layer_1" xmlns="http://www.w3.org/2000/svg" xmlns:xlink="http://www.w3.org/1999/xlink" x="0px" y="0px"
	 viewBox="0 0 124 100" style="enable-background:new 0 0 124 100;" xml:space="preserve">
<style type="text/css">
	.st0{fill:#BCD636;}
</style>
<title>twitter</title>
<path class="st0" d="M94.8,33.6C96,59.3,76.1,81.1,50.4,82.3C40.7,82.8,31.1,80.2,23,75c8.7,1.1,17.4-1.3,24.3-6.6
	c-7-0.2-13.1-4.7-15.3-11.4c2.5,0.5,5,0.4,7.4-0.3c-7.7-1.6-13.3-8.4-13.3-16.3c2.3,1.3,4.8,2,7.4,2.1c-7.1-4.9-9.3-14.4-5.1-21.9
	C36.8,30.9,49,37.1,62.2,37.7c-2.1-8.8,3.4-17.7,12.3-19.7c5.7-1.3,11.7,0.5,15.7,4.8c3.7-0.8,7.3-2.2,10.6-4.2
	c-1.2,3.8-3.8,7-7.2,9.1c3.3-0.4,6.4-1.3,9.4-2.6C100.8,28.4,98,31.3,94.8,33.6z"/>
</svg>
