<?xml version="1.0" encoding="UTF-8"?>
<svg width="107px" height="60px" viewBox="0 0 107 60" version="1.1" xmlns="http://www.w3.org/2000/svg" xmlns:xlink="http://www.w3.org/1999/xlink">

<polygon fill="#54a2ff" points="0,0 105.7,0 0,59.6 "/>
<path id="Twitter" fill="#0B0340" d="M35.1,14.3c-0.5,0.2-1,0.4-1.5,0.5c0.6-0.5,1-1.2,1.2-1.9c0.1-0.2-0.2-0.4-0.3-0.3
	c-0.7,0.4-1.4,0.7-2.2,0.9c0,0-0.1,0-0.1,0c-0.1,0-0.3-0.1-0.4-0.1c-0.8-0.7-1.9-1.1-3-1.1c-0.5,0-1,0.1-1.4,0.2
	c-1.5,0.5-2.6,1.7-3,3.2c-0.1,0.6-0.2,1.1-0.1,1.7c0,0.1,0,0.1,0,0.1c0,0-0.1,0.1-0.1,0.1c0,0,0,0,0,0c-3.2-0.3-6.2-1.9-8.2-4.4
	c-0.1-0.1-0.3-0.1-0.4,0c-0.4,0.7-0.6,1.5-0.6,2.3c0,1.2,0.5,2.4,1.4,3.3c-0.4-0.1-0.7-0.2-1-0.4c-0.2-0.1-0.4,0-0.4,0.2
	c0,1.8,1.1,3.5,2.7,4.2c0,0-0.1,0-0.1,0c-0.3,0-0.5,0-0.8-0.1c-0.2,0-0.3,0.1-0.3,0.3c0.5,1.6,1.9,2.8,3.6,3.1
	c-1.4,0.9-3,1.4-4.7,1.4l-0.5,0c-0.2,0-0.3,0.1-0.3,0.3c0,0.2,0,0.3,0.2,0.4c1.9,1.1,4.1,1.7,6.3,1.7c1.9,0,3.7-0.4,5.4-1.1
	c1.5-0.7,2.8-1.7,3.9-2.9c1-1.2,1.8-2.5,2.4-4c0.5-1.4,0.8-3,0.8-4.4v-0.1c0-0.2,0.1-0.5,0.3-0.6c0.7-0.6,1.3-1.2,1.8-2
	C35.5,14.4,35.3,14.2,35.1,14.3z"/>
</svg>