<?xml version="1.0" encoding="UTF-8"?>
<svg width="107px" height="60px" viewBox="0 0 107 60" version="1.1" xmlns="http://www.w3.org/2000/svg" xmlns:xlink="http://www.w3.org/1999/xlink">
    <!-- Generator: Sketch 49.3 (51167) - http://www.bohemiancoding.com/sketch -->
    <g stroke="none" stroke-width="1" fill="none" fill-rule="evenodd">
        <g transform="translate(-227.000000, -479.000000)">
            <g transform="translate(227.000000, 182.000000)">
                <g transform="translate(0.000000, 297.000000)">
                    <polygon id="Path-2-Copy-3" fill="#ADCB2B" transform="translate(53.456691, 30.683409) scale(1, -1) translate(-53.456691, -30.683409) " points="0.61296066 60.4814017 106.300422 0.885416775 0.61296066 0.885416775"></polygon>
                    <path d="M35.4871793,35.0464312 C35.0172978,35.2547919 34.5295244,35.4191706 34.0290152,35.5381749 C34.5805189,35.0141021 34.9951778,34.3585985 35.2291132,33.6269384 C35.2958855,33.418062 35.0690142,33.2374415 34.8804016,33.3492788 C34.1841127,33.7622878 33.4340966,34.0721219 32.6511326,34.2702734 C32.6057068,34.2817716 32.5588373,34.2875981 32.511813,34.2875981 C32.3691934,34.2875981 32.2305441,34.2346443 32.1214911,34.1385333 C31.2884608,33.4043466 30.2170608,33 29.1047208,33 C28.6233926,33 28.1374238,33.0750222 27.6602721,33.2230042 C26.1818958,33.6815422 25.0411969,34.9010273 24.6833074,36.4055969 C24.5490408,36.9699394 24.5126898,37.5347976 24.5751825,38.084445 C24.5823496,38.147608 24.5524954,38.1916933 24.5340879,38.2123695 C24.5017587,38.2486173 24.4559204,38.2693967 24.408329,38.2693967 C24.4030181,38.2693967 24.3975526,38.2691389 24.3921386,38.2686233 C21.1560249,37.9679672 18.2378405,36.4088969 16.1751157,33.8786625 C16.0699299,33.7496036 15.8682207,33.765433 15.7843814,33.9092385 C15.3804472,34.6022274 15.1669819,35.3948335 15.1669819,36.2013611 C15.1669819,37.4373976 15.6635724,38.6022273 16.5261476,39.4513965 C16.1634112,39.3653916 15.8123278,39.2299391 15.4862002,39.0488029 C15.3284215,38.9611481 15.1342918,39.0738104 15.1320747,39.2542762 C15.1094907,41.0904905 16.1845515,42.7243768 17.7950288,43.4601103 C17.7625965,43.4608837 17.7301642,43.4612447 17.6976804,43.4612447 C17.4423985,43.4612447 17.1839199,43.4365982 16.9295146,43.3879755 C16.7518331,43.3540479 16.602562,43.522603 16.657733,43.6948706 C17.1804652,45.3268491 18.5856239,46.5297829 20.2671532,46.8029051 C18.871585,47.7397291 17.2464126,48.2338962 15.554932,48.2338962 L15.0276107,48.2335868 C14.8651399,48.2335868 14.727728,48.3394945 14.686324,48.4968607 C14.6455387,48.6518551 14.7206641,48.8153572 14.8592103,48.8959481 C16.7652391,50.0051943 18.939337,50.5914506 21.1474141,50.5914506 C23.0802034,50.5914506 24.8881619,50.2078833 26.5211201,49.4514735 C28.0181101,48.7580206 29.3409764,47.7667474 30.4529554,46.505188 C31.4888294,45.3299944 32.2988633,43.9733552 32.860473,42.4730136 C33.3958379,41.0428475 33.6788083,39.5168283 33.6788083,38.0599016 L33.6788083,37.9904996 C33.6787568,37.7565643 33.7845613,37.5364475 33.9691521,37.3866093 C34.6696174,36.8178841 35.279592,36.1484073 35.7820605,35.3967928 C35.9147287,35.1983319 35.7054915,34.9495984 35.4871793,35.0464312 Z" id="Twitter" fill="#0B0340"></path>
                </g>
            </g>
        </g>
    </g>
</svg>